<?xml version="1.0" encoding="UTF-8" standalone="no"?>
<svg
   xmlns:dc="http://purl.org/dc/elements/1.1/"
   xmlns:cc="http://creativecommons.org/ns#"
   xmlns:rdf="http://www.w3.org/1999/02/22-rdf-syntax-ns#"
   xmlns:svg="http://www.w3.org/2000/svg"
   xmlns="http://www.w3.org/2000/svg"
   xmlns:sodipodi="http://sodipodi.sourceforge.net/DTD/sodipodi-0.dtd"
   xmlns:inkscape="http://www.inkscape.org/namespaces/inkscape"
   height="64"
   version="1.1"
   viewBox="0 0 64 64"
   width="64"
   xml:space="preserve"
   id="svg8"
   sodipodi:docname="icon.svg"
   inkscape:export-filename="C:\Users\Adrian\Repos\assets-api-client\assets-api-client.png"
   inkscape:export-xdpi="96"
   inkscape:export-ydpi="96"
   inkscape:version="0.92.3 (2405546, 2018-03-11)"><metadata
     id="metadata14"><rdf:RDF><cc:Work
         rdf:about=""><dc:format>image/svg+xml</dc:format><dc:type
           rdf:resource="http://purl.org/dc/dcmitype/StillImage" /><dc:title></dc:title></cc:Work></rdf:RDF></metadata><defs
     id="defs12" /><sodipodi:namedview
     pagecolor="#ffffff"
     bordercolor="#666666"
     borderopacity="1"
     objecttolerance="10"
     gridtolerance="10"
     guidetolerance="10"
     inkscape:pageopacity="0"
     inkscape:pageshadow="2"
     inkscape:window-width="3001"
     inkscape:window-height="1817"
     id="namedview10"
     showgrid="false"
     inkscape:zoom="16"
     inkscape:cx="9.5197648"
     inkscape:cy="27.265481"
     inkscape:window-x="141"
     inkscape:window-y="140"
     inkscape:window-maximized="0"
     inkscape:current-layer="svg8" /><g
     id="Layer_1"
     transform="translate(0,-448)" /><rect
     style="fill:#77c091;fill-opacity:1;fill-rule:nonzero;stroke:none;stroke-width:1.88976383;stroke-linecap:round;stroke-linejoin:round;stroke-miterlimit:4;stroke-dasharray:none;stroke-opacity:1"
     id="rect835"
     width="50"
     height="50"
     x="13"
     y="13"
     rx="16"
     ry="16" /><circle
     style="fill:#77c091;fill-opacity:1;fill-rule:nonzero;stroke:none;stroke-width:1.88976383;stroke-linecap:round;stroke-linejoin:round;stroke-miterlimit:4;stroke-dasharray:none;stroke-opacity:1"
     id="path837"
     cx="6.5"
     cy="6.5"
     r="5.5" /><path
     transform="rotate(-17.659134,80.019767,10.888046)"
     style="fill:#fdf1f1;fill-opacity:1;fill-rule:nonzero;stroke:none;stroke-width:1.88976383;stroke-linecap:round;stroke-linejoin:round;stroke-miterlimit:4;stroke-dasharray:none;stroke-opacity:1"
     inkscape:transform-center-x="1.2758449"
     inkscape:transform-center-y="-1.1965335"
     d="M 44.453022,39.095248 26.699395,40.340753 13.122941,29.059737 19.239572,9.4109416 36.977029,7.7011535 50.813338,19.196077 Z"
     id="path874"
     inkscape:connector-curvature="0"
     sodipodi:nodetypes="ccccccc" /><path
     style="fill:#6d696a;stroke-width:1;fill-opacity:1"
     d="M 32.704803,54.659921 C 26.306218,52.11113 22.096335,50.39394 21.333483,50.02162 20.9996,49.858662 20.634384,49.529046 20.521892,49.289138 20.369742,48.964652 20.317361,46.067928 20.317361,37.9784 V 27.103862 l 0.384437,-0.372125 c 0.211441,-0.204669 2.691065,-1.330328 5.510276,-2.501465 2.819212,-1.171137 6.519416,-2.71867 8.222677,-3.438962 1.703261,-0.720292 3.265289,-1.309622 3.471173,-1.309622 0.34459,0 15.76122,5.973091 16.92171,6.556226 0.568083,0.285457 1.028871,1.017929 1.028871,1.635499 0,0.893306 0.22342,0.787863 -13.710298,6.470578 l -2.518886,1.0273 -0.0014,9.006994 c -6.83e-4,4.953847 0.05635,9.00521 0.126827,9.00303 0.07048,-0.0022 3.088317,-1.217495 6.706305,-2.700695 l 6.578159,-2.696729 0.08543,-7.93957 0.08543,-7.939571 0.479396,-0.400567 c 0.608319,-0.50829 1.166697,-0.508278 1.774989,4e-5 l 0.479396,0.400606 0.04711,8.614938 0.04712,8.614939 -0.388838,0.345036 c -0.518507,0.460101 -17.01423,7.198786 -17.560394,7.173616 -0.234934,-0.01082 -2.656892,-0.907874 -5.38213,-1.993437 z m 3.973996,-10.477271 -0.04419,-9.002629 -6.650921,-2.785327 c -3.658006,-1.531929 -6.676494,-2.785326 -6.707751,-2.785326 -0.03126,0 -0.03696,4.125746 -0.01267,9.168327 l 0.04416,9.168325 1.196029,0.488338 c 4.527928,1.848747 11.826154,4.730236 12.004475,4.739614 0.170836,0.009 0.205965,-1.839567 0.170862,-8.991322 z m 8.020282,-14.031609 c 3.49572,-1.439359 6.302116,-2.666281 6.236437,-2.726492 -0.06568,-0.06021 -3.021108,-1.246508 -6.567615,-2.636215 l -6.448195,-2.52674 -3.54719,1.501744 c -1.950954,0.825959 -4.768747,2.008183 -6.261762,2.627165 -2.681345,1.111644 -2.708534,1.128126 -2.221197,1.346446 2.018661,0.904331 11.993302,5.00818 12.197374,5.018345 0.140961,0.007 3.116428,-1.164893 6.612148,-2.604253 z"
     id="path868"
     inkscape:connector-curvature="0" /><path
     style="fill:#000000;stroke-width:1"
     d=""
     id="path864"
     inkscape:connector-curvature="0" /><path
     style="fill:#000000;stroke-width:1"
     d=""
     id="path858"
     inkscape:connector-curvature="0" /><path
     style="fill:#000000;stroke-width:1"
     d=""
     id="path856"
     inkscape:connector-curvature="0" /></svg>